<svg width="21" height="24" viewBox="0 0 21 24" fill="none" xmlns="http://www.w3.org/2000/svg">
<path d="M19.7919 18.7032C19.429 19.5417 18.9994 20.3135 18.5015 21.0232C17.8231 21.9906 17.2676 22.6601 16.8394 23.0321C16.1758 23.6424 15.4647 23.9549 14.7032 23.9727C14.1566 23.9727 13.4973 23.8172 12.73 23.5017C11.96 23.1875 11.2525 23.0321 10.6056 23.0321C9.92708 23.0321 9.1994 23.1875 8.42106 23.5017C7.64152 23.8172 7.01355 23.9816 6.53341 23.998C5.80322 24.0289 5.07539 23.7075 4.34889 23.0321C3.8852 22.6275 3.30523 21.9342 2.61042 20.9521C1.86497 19.9032 1.25211 18.6869 0.771974 17.3003C0.257769 15.8026 0 14.3523 0 12.9482C0 11.3398 0.347547 9.95255 1.04367 8.79008C1.59077 7.85634 2.31859 7.11976 3.22953 6.57905C4.14046 6.03833 5.12472 5.76277 6.18469 5.74514C6.76467 5.74514 7.52522 5.92455 8.47039 6.27713C9.41288 6.63089 10.018 6.8103 10.2834 6.8103C10.4817 6.8103 11.154 6.60052 12.2937 6.18232C13.3714 5.79448 14.281 5.63389 15.0262 5.69715C17.0454 5.8601 18.5624 6.65607 19.5711 8.09011C17.7653 9.1843 16.872 10.7168 16.8898 12.6828C16.9061 14.2142 17.4616 15.4885 18.5535 16.5004C19.0482 16.97 19.6009 17.3329 20.2156 17.5907C20.0824 17.9773 19.9415 18.3477 19.7919 18.7032ZM15.161 0.480135C15.161 1.68041 14.7225 2.8011 13.8484 3.8384C12.7937 5.07153 11.5178 5.78411 10.1343 5.67167C10.1167 5.52768 10.1065 5.37612 10.1065 5.21686C10.1065 4.06461 10.6081 2.83146 11.4989 1.8232C11.9436 1.3127 12.5092 0.888226 13.1951 0.549614C13.8795 0.216054 14.5269 0.0315889 15.1358 0C15.1536 0.160457 15.161 0.320925 15.161 0.480119V0.480135Z" fill="white"/>
</svg>
