<svg width="100" height="25" viewBox="0 0 100 25" fill="none" xmlns="http://www.w3.org/2000/svg">
<path d="M0.347229 8.86801H5.74001V24.6334H0.347229V8.86801Z" fill="black"/>
<path d="M8.78257 8.86801H13.6384L17.6538 16.5215L21.5758 8.86801L26.4317 15.2154V24.6334H21.5758V16.2236L18.611 21.7232H16.6266L13.6384 16.2236V24.6334H8.78257V8.86801Z" fill="black"/>
<path d="M25.6817 8.86801H35.273C37.6698 8.86801 39.5219 9.32631 40.8292 10.2429C42.1521 11.1595 42.8136 12.4427 42.8136 14.0926C42.8136 15.1314 42.4867 16.0403 41.833 16.8194C41.1949 17.5985 40.3156 18.202 39.195 18.6297C38.09 19.0422 36.8605 19.2484 35.5065 19.2484H34.526V24.6334H29.4834V13.7718L25.6817 8.86801ZM35.5298 16.0632C36.3547 16.0632 36.9928 15.8952 37.4441 15.5591C37.8955 15.223 38.1211 14.7342 38.1211 14.0926C38.1211 13.451 37.8955 12.9698 37.4441 12.6489C37.0083 12.3281 36.3702 12.1677 35.5298 12.1677H34.526V16.0174C34.8372 16.048 35.1718 16.0632 35.5298 16.0632Z" fill="black"/>
<path d="M44.6442 8.86801H57.7816L55.92 12.3511H50.3171V15.2154H55.4297V18.1027H50.3171V21.1503H55.92V24.6334H44.6442V18.1027C44.6442 18.1027 46.1089 16.3469 46.1089 13.4826C46.1089 11.595 44.6442 8.86801 44.6442 8.86801ZM47.4456 4.69752L54.2858 0L56.6437 4.10174L48.8697 7.1494L47.4456 4.69752Z" fill="black"/>
<path d="M70.6912 25C67.7653 25 65.9755 23.6709 65.3218 21.0128L64.7382 18.6526H63.6409V24.6334H58.5283V12.3511L60.6998 8.70865L65.6019 8.86801C66.9404 8.86801 68.1154 9.06661 69.1271 9.46379C70.1543 9.84571 70.948 10.388 71.5083 11.0907C72.0686 11.7935 72.3487 12.6031 72.3487 13.5197C72.3487 14.5432 72.0919 15.4064 71.5783 16.1091C71.0803 16.7965 70.3021 17.3617 69.2438 17.8048C69.3527 18.3853 69.4773 18.9123 69.6173 19.3859C69.8041 19.9664 70.0609 20.3712 70.3877 20.6004C70.7146 20.8295 71.1893 20.9441 71.8118 20.9441C72.0297 20.9441 72.3721 20.9135 72.839 20.8524V24.5875C72.1075 24.8625 71.3916 25 70.6912 25ZM64.528 15.4445C65.6797 15.4445 66.4891 15.3223 66.956 15.0779C67.4384 14.8182 67.6797 14.3828 67.6797 13.7718C67.6797 13.2524 67.4851 12.8781 67.096 12.6489C66.7069 12.4045 66.0922 12.2823 65.2517 12.2823H63.6409V15.4445H64.528Z" fill="black"/>
<path d="M74.829 8.86801H80.2218V24.6334H74.829V8.86801Z" fill="black"/>
<path d="M91.0617 25C89.3808 25 87.8867 24.6486 86.5794 23.9459C85.2876 23.2432 84.276 22.2731 83.5445 21.0357C82.8286 19.7831 82.4706 18.3624 82.4706 16.7736C82.4706 15.1696 82.8286 13.7412 83.5445 12.4885C84.276 11.2359 85.2876 10.2658 86.5794 9.57837C87.8867 8.87565 89.3808 8.52429 91.0617 8.52429C92.7426 8.52429 94.2289 8.87565 95.5207 9.57837C96.828 10.2658 97.8396 11.2359 98.5556 12.4885C99.2871 13.7259 99.6528 15.1543 99.6528 16.7736C99.6528 18.3624 99.2871 19.7831 98.5556 21.0357C97.8396 22.2731 96.828 23.2432 95.5207 23.9459C94.2133 24.6486 92.727 25 91.0617 25ZM91.0617 20.8295C92.0422 20.8295 92.8437 20.4552 93.4663 19.7067C94.1044 18.9581 94.4234 17.9728 94.4234 16.7507C94.4234 15.941 94.2756 15.223 93.9799 14.5967C93.6997 13.9551 93.3029 13.4586 92.7893 13.1072C92.2757 12.7406 91.692 12.5573 91.0384 12.5573C90.4002 12.5573 89.8244 12.7406 89.3108 13.1072C88.7972 13.4586 88.4003 13.9551 88.1202 14.5967C87.84 15.223 87.7 15.941 87.7 16.7507C87.7 17.9728 88.0112 18.9581 88.6338 19.7067C89.2563 20.4552 90.0656 20.8295 91.0617 20.8295Z" fill="black"/>
</svg>
