<svg width="24" height="24" viewBox="0 0 24 24" fill="none" xmlns="http://www.w3.org/2000/svg">
<path d="M5.3189 14.5033L4.4835 17.622L1.43011 17.6866C0.517593 15.9941 0 14.0576 0 11.9998C0 10.01 0.483937 8.13348 1.34175 6.4812H1.3424L4.06078 6.97957L5.25159 9.68161C5.00235 10.4082 4.86651 11.1882 4.86651 11.9998C4.8666 12.8807 5.02617 13.7247 5.3189 14.5033Z" fill="#FBBB00"/>
<path d="M23.7905 9.7583C23.9284 10.4842 24.0002 11.2339 24.0002 12C24.0002 12.8591 23.9099 13.6972 23.7378 14.5055C23.1537 17.2563 21.6273 19.6582 19.5128 21.358L19.5121 21.3573L16.0882 21.1826L15.6036 18.1576C17.0067 17.3347 18.1032 16.047 18.6808 14.5055H12.264V9.7583H18.7744H23.7905Z" fill="#518EF8"/>
<path d="M19.5122 21.3574L19.5129 21.3581C17.4564 23.011 14.8441 24 12.0004 24C7.43047 24 3.45731 21.4458 1.43048 17.6869L5.31927 14.5037C6.33266 17.2082 8.94168 19.1335 12.0004 19.1335C13.3151 19.1335 14.5467 18.7781 15.6036 18.1577L19.5122 21.3574Z" fill="#28B446"/>
<path d="M19.66 2.7626L15.7725 5.94519C14.6787 5.26148 13.3857 4.86652 12.0004 4.86652C8.87248 4.86652 6.21467 6.88011 5.25205 9.68166L1.34282 6.48125H1.34216C3.33932 2.63074 7.3626 0 12.0004 0C14.912 0 17.5817 1.03715 19.66 2.7626Z" fill="#F14336"/>
</svg>
